<?xml version="1.0" encoding="UTF-8"?>
<svg width="312px" height="75px" viewBox="0 0 312 75" version="1.1" xmlns="http://www.w3.org/2000/svg" xmlns:xlink="http://www.w3.org/1999/xlink">
    <!-- Generator: Sketch 62 (91390) - https://sketch.com -->
    <title>mark/MolSearch</title>
    <desc>Created with Sketch.</desc>
    <g id="mark/MolSearch" stroke="none" stroke-width="1" fill="none" fill-rule="evenodd">
        <g id="MolSearch-logo" fill="#4FC4F9" fill-rule="nonzero">
            <path d="M9.6,47.94 L9.6,32.64 C9.6,28.2 8.76,21.54 8.22,17.16 L8.46,17.16 L12.06,27.84 L18.12,44.16 L24,44.16 L30,27.84 L33.72,17.16 L33.96,17.16 C33.42,21.54 32.58,28.2 32.58,32.64 L32.58,47.94 L42.36,47.94 L42.36,3.3 L30.72,3.3 L23.88,22.56 C23.04,25.14 22.32,27.96 21.42,30.72 L21.12,30.72 C20.28,27.96 19.56,25.14 18.66,22.56 L11.58,3.3 L0,3.3 L0,47.94 L9.6,47.94 Z M66.6,48.78 C75.24,48.78 83.28,42.18 83.28,30.9 C83.28,19.56 75.24,12.96 66.6,12.96 C57.9,12.96 49.86,19.56 49.86,30.9 C49.86,42.18 57.9,48.78 66.6,48.78 Z M66.6,40.14 C62.58,40.14 60.78,36.54 60.78,30.9 C60.78,25.2 62.58,21.6 66.6,21.6 C70.56,21.6 72.36,25.2 72.36,30.9 C72.36,36.54 70.56,40.14 66.6,40.14 Z M99.72,48.78 C102.06,48.78 103.86,48.36 105,47.88 L103.74,40.02 C103.14,40.14 102.9,40.14 102.54,40.14 C101.7,40.14 100.62,39.48 100.62,37.26 L100.62,0 L90,0 L90,36.84 C90,43.98 92.4,48.78 99.72,48.78 Z M124.62,48.78 C135.42,48.78 141.66,42.24 141.66,34.8 C141.66,28.5 138.36,24.78 132.84,22.56 L127.26,20.34 C123.3,18.78 120.48,17.82 120.48,15.36 C120.48,12.96 122.52,11.64 125.82,11.64 C129.3,11.64 132.06,12.84 135,15.06 L140.34,8.34 C136.44,4.44 130.98,2.46 125.82,2.46 C116.34,2.46 109.62,8.46 109.62,15.96 C109.62,22.44 114,26.34 118.68,28.2 L124.38,30.6 C128.22,32.22 130.68,33.06 130.68,35.64 C130.68,38.04 128.82,39.54 124.86,39.54 C121.32,39.54 117.18,37.68 114,34.98 L107.94,42.36 C112.56,46.62 118.8,48.78 124.62,48.78 Z M163.68,48.78 C167.7,48.78 172.38,47.4 175.92,44.88 L172.38,38.46 C169.92,39.9 167.64,40.62 165.18,40.62 C160.86,40.62 157.62,38.7 156.66,34.02 L176.7,34.02 C176.94,33.24 177.18,31.32 177.18,29.46 C177.18,20.1 172.38,12.96 162.54,12.96 C154.26,12.96 146.34,19.8 146.34,30.9 C146.34,42.18 153.9,48.78 163.68,48.78 Z M168.12,27.06 L156.48,27.06 C157.2,22.98 159.78,21.12 162.72,21.12 C166.62,21.12 168.12,23.64 168.12,27.06 Z M192.66,48.78 C196.44,48.78 199.62,47.04 202.44,44.52 L202.68,44.52 L203.46,47.94 L212.16,47.94 L212.16,28.56 C212.16,17.88 207.18,12.96 198.36,12.96 C193.02,12.96 188.16,14.76 183.66,17.46 L187.38,24.48 C190.8,22.56 193.62,21.48 196.32,21.48 C199.8,21.48 201.24,23.1 201.48,25.86 C188.16,27.3 182.52,31.2 182.52,38.4 C182.52,44.1 186.36,48.78 192.66,48.78 Z M196.32,40.5 C194.1,40.5 192.66,39.54 192.66,37.56 C192.66,35.16 194.82,33.24 201.48,32.34 L201.48,37.8 C199.92,39.48 198.48,40.5 196.32,40.5 Z M231,47.94 L231,28.44 C232.8,23.94 235.86,22.32 238.38,22.32 C239.88,22.32 240.9,22.56 242.1,22.86 L243.9,13.68 C242.94,13.26 241.8,12.96 239.76,12.96 C236.34,12.96 232.56,15.18 230.04,19.74 L229.8,19.74 L229.08,13.8 L220.38,13.8 L220.38,47.94 L231,47.94 Z M263.28,48.78 C266.88,48.78 271.2,47.7 274.5,44.76 L270.42,37.74 C268.68,39.12 266.64,40.14 264.48,40.14 C260.28,40.14 257.22,36.54 257.22,30.9 C257.22,25.2 260.16,21.6 264.84,21.6 C266.34,21.6 267.66,22.14 269.22,23.46 L274.2,16.62 C271.62,14.4 268.38,12.96 264.24,12.96 C254.7,12.96 246.3,19.56 246.3,30.9 C246.3,42.18 253.68,48.78 263.28,48.78 Z M291.06,47.94 L291.06,25.14 C293.16,23.16 294.6,22.08 297,22.08 C299.7,22.08 300.96,23.46 300.96,28.14 L300.96,47.94 L311.64,47.94 L311.64,26.82 C311.64,18.3 308.46,12.96 301.02,12.96 C296.4,12.96 293.04,15.3 290.58,17.58 L291.06,11.52 L291.06,0 L280.44,0 L280.44,47.94 L291.06,47.94 Z" id="Shape"></path>
        </g>
        <g id="mark/powered-by-Milvus" transform="translate(112.254000, 60.554000)" fill="#60606F" fill-rule="nonzero">
            <path d="M1.674,13.446 L1.674,8.208 L3.852,8.208 C6.732,8.208 8.712,6.912 8.712,4.122 C8.712,1.242 6.732,0.252 3.762,0.252 L-4.26325641e-14,0.252 L-4.26325641e-14,13.446 L1.674,13.446 Z M3.636,6.858 L1.674,6.858 L1.674,1.602 L3.564,1.602 C5.886,1.602 7.056,2.214 7.056,4.122 C7.056,6.012 5.958,6.858 3.636,6.858 Z M17.854,13.68 C21.166,13.68 23.488,11.034 23.488,6.804 C23.488,2.574 21.166,1.77635684e-15 17.854,1.77635684e-15 C14.542,1.77635684e-15 12.22,2.574 12.22,6.804 C12.22,11.034 14.542,13.68 17.854,13.68 Z M17.854,12.222 C15.478,12.222 13.93,10.098 13.93,6.804 C13.93,3.492 15.478,1.458 17.854,1.458 C20.212,1.458 21.778,3.492 21.778,6.804 C21.778,10.098 20.212,12.222 17.854,12.222 Z M31.244,13.446 L33.206,5.49 C33.422,4.446 33.656,3.492 33.872,2.484 L33.944,2.484 C34.16,3.492 34.358,4.446 34.592,5.49 L36.59,13.446 L38.588,13.446 L41.324,0.252 L39.722,0.252 L38.336,7.434 C38.084,8.838 37.832,10.26 37.58,11.7 L37.49,11.7 C37.184,10.26 36.878,8.838 36.554,7.434 L34.7,0.252 L33.188,0.252 L31.37,7.434 C31.046,8.856 30.722,10.278 30.416,11.7 L30.344,11.7 L29.57,7.434 L29.57,7.434 L28.184,0.252 L26.456,0.252 L29.264,13.446 L31.244,13.446 Z M53.022,13.446 L53.022,12.024 L46.884,12.024 L46.884,7.218 L51.888,7.218 L51.888,5.796 L46.884,5.796 L46.884,1.656 L52.824,1.656 L52.824,0.252 L45.21,0.252 L45.21,13.446 L53.022,13.446 Z M59.068,13.446 L59.068,7.848 L61.444,7.848 L64.648,13.446 L66.538,13.446 L63.154,7.668 C64.954,7.236 66.142,6.012 66.142,3.96 C66.142,1.206 64.216,0.252 61.534,0.252 L57.394,0.252 L57.394,13.446 L59.068,13.446 Z M61.282,6.498 L59.068,6.498 L59.068,1.602 L61.282,1.602 C63.352,1.602 64.486,2.214 64.486,3.96 C64.486,5.67 63.352,6.498 61.282,6.498 Z M78.236,13.446 L78.236,12.024 L72.098,12.024 L72.098,7.218 L77.102,7.218 L77.102,5.796 L72.098,5.796 L72.098,1.656 L78.038,1.656 L78.038,0.252 L70.424,0.252 L70.424,13.446 L78.236,13.446 Z M85.992,13.446 C89.97,13.446 92.148,10.98 92.148,6.804 C92.148,2.61 89.97,0.252 85.92,0.252 L82.608,0.252 L82.608,13.446 L85.992,13.446 Z M85.776,12.078 L84.282,12.078 L84.282,1.602 L85.776,1.602 C88.89,1.602 90.42,3.456 90.42,6.804 C90.42,10.134 88.89,12.078 85.776,12.078 Z M106.418,13.446 C109.37,13.446 111.422,12.168 111.422,9.576 C111.422,7.776 110.306,6.732 108.722,6.426 L108.722,6.336 C109.964,5.94 110.666,4.788 110.666,3.474 C110.666,1.152 108.812,0.252 106.13,0.252 L102.206,0.252 L102.206,13.446 L106.418,13.446 Z M105.842,5.868 L103.88,5.868 L103.88,1.566 L105.914,1.566 C107.966,1.566 109.028,2.142 109.028,3.69 C109.028,5.022 108.11,5.868 105.842,5.868 Z M106.184,12.114 L103.88,12.114 L103.88,7.146 L106.184,7.146 C108.488,7.146 109.784,7.884 109.784,9.522 C109.784,11.304 108.452,12.114 106.184,12.114 Z M119.178,13.446 L119.178,8.316 L123.138,0.252 L121.41,0.252 L119.7,3.978 C119.304,4.95 118.854,5.868 118.386,6.858 L118.314,6.858 C117.846,5.868 117.45,4.95 117.018,3.978 L115.326,0.252 L113.544,0.252 L117.504,8.316 L117.504,13.446 L119.178,13.446 Z M133.664,13.446 L133.664,6.138 C133.664,5.004 133.538,3.402 133.466,2.25 L133.538,2.25 L134.582,5.256 L137.084,12.114 L138.2,12.114 L140.702,5.256 L141.746,2.25 L141.818,2.25 C141.728,3.402 141.602,5.004 141.602,6.138 L141.602,13.446 L143.168,13.446 L143.168,0.252 L141.152,0.252 L138.632,7.308 L137.732,10.062 L137.732,10.062 L137.642,10.062 C137.318,9.144 137.012,8.226 136.706,7.308 L134.168,0.252 L132.152,0.252 L132.152,13.446 L133.664,13.446 Z M150.042,13.446 L150.042,0.252 L148.368,0.252 L148.368,13.446 L150.042,13.446 Z M162.676,13.446 L162.676,12.024 L156.916,12.024 L156.916,0.252 L155.242,0.252 L155.242,13.446 L162.676,13.446 Z M169.424,13.446 L173.618,0.252 L171.926,0.252 L169.802,7.398 C169.334,8.946 169.01,10.206 168.524,11.754 L168.452,11.754 C167.948,10.206 167.642,8.946 167.174,7.398 L165.032,0.252 L163.286,0.252 L167.498,13.446 L169.424,13.446 Z M181.5,13.68 C184.2,13.68 186.252,12.24 186.252,7.992 L186.252,0.252 L184.65,0.252 L184.65,8.046 C184.65,11.232 183.264,12.222 181.5,12.222 C179.79,12.222 178.44,11.232 178.44,8.046 L178.44,0.252 L176.766,0.252 L176.766,7.992 C176.766,12.24 178.818,13.68 181.5,13.68 Z M194.872,13.68 C197.626,13.68 199.354,12.024 199.354,9.936 C199.354,7.974 198.166,7.074 196.636,6.408 L194.746,5.598 L194.450533,5.47246453 C193.51102,5.0662449 192.568,4.55828571 192.568,3.402 C192.568,2.214 193.54,1.458 195.034,1.458 C196.258,1.458 197.23,1.944 198.04,2.7 L198.922,1.638 C197.986,0.666 196.6,1.77635684e-15 195.034,1.77635684e-15 C192.64,1.77635684e-15 190.876,1.476 190.876,3.51 C190.876,5.436 192.334,6.372 193.558,6.894 L195.466,7.722 C196.708,8.28 197.662,8.712 197.662,10.062 C197.662,11.358 196.618,12.222 194.89,12.222 C193.522,12.222 192.19,11.574 191.236,10.584 L190.246,11.718 C191.398,12.924 193,13.68 194.872,13.68 Z" id="POWEREDBYMILVUS"></path>
        </g>
    </g>
</svg>