<svg width="20" height="18" viewBox="0 0 20 18" fill="none" xmlns="http://www.w3.org/2000/svg">
<path fill-rule="evenodd" clip-rule="evenodd" d="M10 0C4.47514 0 0 4.12894 0 9.22641C0 13.3044 2.86679 16.7593 6.83855 17.9827C7.33579 18.0677 7.51995 17.7845 7.51995 17.5353C7.51995 17.3144 7.51381 16.7367 7.50767 15.9664C4.72683 16.5214 4.13751 14.7317 4.13751 14.7317C3.68324 13.6669 3.0264 13.378 3.0264 13.378C2.11786 12.806 3.09392 12.8173 3.09392 12.8173C4.09454 12.8853 4.62861 13.7688 4.62861 13.7688C5.51872 15.1791 6.96746 14.7713 7.53837 14.5334C7.63045 13.9387 7.88827 13.5309 8.17066 13.2987C5.95457 13.0722 3.62185 12.2792 3.62185 8.74498C3.62185 7.73681 4.00859 6.91556 4.65316 6.26988C4.5488 6.032 4.20503 5.09746 4.74524 3.82876C4.74524 3.82876 5.58625 3.57955 7.4954 4.77462C8.29343 4.57072 9.14672 4.46878 10 4.46311C10.8471 4.46878 11.7066 4.57072 12.5046 4.77462C14.4137 3.57955 15.2548 3.82876 15.2548 3.82876C15.8011 5.09746 15.4573 6.03766 15.353 6.26988C15.9914 6.91556 16.3781 7.73681 16.3781 8.74498C16.3781 12.2905 14.0393 13.0665 11.8109 13.2987C12.167 13.5819 12.4923 14.1483 12.4923 15.0092C12.4923 16.2439 12.48 17.2351 12.48 17.5409C12.48 17.7901 12.6581 18.0733 13.1676 17.9827C17.1393 16.7593 20 13.3044 20 9.23207C20 4.12894 15.5249 0 10 0Z" fill="#06AFF2"/>
</svg>
