<?xml version="1.0" encoding="UTF-8"?>
<svg width="24px" height="24px" viewBox="0 0 24 24" version="1.1" xmlns="http://www.w3.org/2000/svg" xmlns:xlink="http://www.w3.org/1999/xlink">
    <!-- Generator: Sketch 62 (91390) - https://sketch.com -->
    <title>icon/loading</title>
    <desc>Created with Sketch.</desc>
    <g id="icon/loading" stroke="none" stroke-width="1" fill="none" fill-rule="evenodd">
        <path d="M15.6238889,8.83696983 L17.7201664,5.95427805 C17.9889252,5.58455364 17.907201,5.06689808 17.5374766,4.79813926 C17.1677522,4.52938044 16.6503035,4.61131154 16.3815447,4.98082905 L14.2852673,7.86352084 C14.0165084,8.23324525 14.0982326,8.75069391 14.4679571,9.01945273 C14.6148537,9.12641832 14.7851297,9.1779356 14.9539574,9.1779356 C15.2096817,9.1779356 15.4618888,9.05959069 15.6238889,8.83696983 M17.0363727,11.6489029 L20.4278235,10.5477987 C20.8625135,10.4064882 21.1004447,9.93972927 20.9593412,9.50503929 C20.8180307,9.07014242 20.3516855,8.8330388 19.9165818,8.97352166 L16.5253379,10.0746259 C16.0906479,10.2159364 15.8525098,10.6826953 15.9938202,11.1173853 C16.1074065,11.4672476 16.4318206,11.6896616 16.7806484,11.6896616 C16.8654761,11.6896616 16.9515451,11.6764202 17.0363727,11.6489029 M20.9593412,15.3225608 C21.1004447,14.8878709 20.8625135,14.4211119 20.4278235,14.2798014 L17.0363727,13.1786972 C16.6018897,13.0373867 16.1349238,13.2755248 15.9938202,13.7102148 C15.8525098,14.1449048 16.0906479,14.6118707 16.5253379,14.7529742 L19.9165818,15.8542854 C20.0016163,15.8818026 20.0876853,15.8948371 20.172513,15.8948371 C20.5213408,15.8948371 20.8457549,15.6724232 20.9593412,15.3225608 M17.5374766,20.0294609 C17.907201,19.7604952 17.9889252,19.2430465 17.7201664,18.8733221 L15.6238889,15.9908372 C15.355337,15.6213197 14.8378884,15.5393886 14.4679571,15.8081474 C14.0982326,16.0771131 14.0165084,16.5945618 14.2852673,16.9642862 L16.3815447,19.8467711 C16.5435448,20.0695988 16.7957519,20.1877368 17.0514762,20.1877368 C17.2203039,20.1877368 17.3905799,20.1362196 17.5374766,20.0294609 M12.82768,21.0000133 L12.82768,17.4368383 C12.82768,16.9798034 12.457128,16.6092514 12.0000932,16.6092514 C11.5430583,16.6092514 11.1725063,16.9798034 11.1725063,17.4368383 L11.1725063,21.0000133 C11.1725063,21.4570481 11.5430583,21.8276001 12.0000932,21.8276001 C12.457128,21.8276001 12.82768,21.4570481 12.82768,21.0000133 M7.61864164,19.8467711 L9.71471216,16.9642862 C9.98367787,16.5945618 9.90195367,16.0771131 9.53222926,15.8081474 C9.16250485,15.5393886 8.64505619,15.6213197 8.37629737,15.9908372 L6.28001996,18.8733221 C6.01126114,19.2430465 6.09298534,19.7604952 6.46250285,20.0294609 C6.60960641,20.1362196 6.7798824,20.1877368 6.94871011,20.1877368 C7.20443444,20.1877368 7.45664152,20.0695988 7.61864164,19.8467711 M4.08339765,15.8542854 L7.47484843,14.7529742 C7.90953841,14.6118707 8.14746962,14.1449048 8.00636606,13.7102148 C7.86526251,13.2755248 7.39871044,13.0384212 6.96360667,13.1786972 L3.57236279,14.2798014 C3.13767281,14.4211119 2.8995347,14.8878709 3.04063825,15.3225608 C3.15443144,15.6724232 3.47884548,15.8948371 3.82767332,15.8948371 C3.91250097,15.8948371 3.99857,15.8815957 4.08339765,15.8542854 M8.00636606,11.1173853 C8.14746962,10.6826953 7.90953841,10.2159364 7.47484843,10.0746259 L4.08339765,8.97352166 C3.64870767,8.83221121 3.1819487,9.07014242 3.04063825,9.50503929 C2.8995347,9.93972927 3.13767281,10.4064882 3.57236279,10.5477987 L6.96360667,11.6489029 C7.04864122,11.6766271 7.13471025,11.6896616 7.2195379,11.6896616 C7.56836574,11.6896616 7.89277977,11.4670407 8.00636606,11.1173853 M9.53222926,9.01945273 C9.90195367,8.75069391 9.98367787,8.23324525 9.71471216,7.86352084 L7.61864164,4.98082905 C7.34988282,4.61110464 6.83222727,4.52917354 6.46250285,4.79813926 C6.09298534,5.06689808 6.01126114,5.58455364 6.28001996,5.95427805 L8.37629737,8.83696983 C8.5380906,9.05979758 8.79029768,9.1779356 9.0462289,9.1779356 C9.21484972,9.1779356 9.3853326,9.12641832 9.53222926,9.01945273 M12.0000932,8.21855558 C11.5430583,8.21855558 11.1725063,7.84800359 11.1725063,7.39096876 L11.1725063,3.82758682 C11.1725063,3.370552 11.5430583,3 12.0000932,3 C12.457128,3 12.82768,3.370552 12.82768,3.82758682 L12.82768,7.39096876 C12.82768,7.84800359 12.457128,8.21855558 12.0000932,8.21855558" id="loading" fill="rgba(150,219,251,1)"></path>
    </g>
</svg>