<?xml version="1.0" encoding="UTF-8"?>
<svg width="312px" height="49px" viewBox="0 0 312 49" version="1.1" xmlns="http://www.w3.org/2000/svg" xmlns:xlink="http://www.w3.org/1999/xlink">
    <!-- Generator: Sketch 62 (91390) - https://sketch.com -->
    <title>MolSearch</title>
    <desc>Created with Sketch.</desc>
    <g id="chemical" stroke="none" stroke-width="1" fill="none" fill-rule="evenodd">
        <g id="MolSearch" transform="translate(-44.000000, -51.000000)" fill="#4FC4F9" fill-rule="nonzero">
            <path d="M53.6,98.94 L53.6,83.64 C53.6,79.2 52.76,72.54 52.22,68.16 L52.46,68.16 L56.06,78.84 L62.12,95.16 L68,95.16 L74,78.84 L77.72,68.16 L77.96,68.16 C77.42,72.54 76.58,79.2 76.58,83.64 L76.58,98.94 L86.36,98.94 L86.36,54.3 L74.72,54.3 L67.88,73.56 C67.04,76.14 66.32,78.96 65.42,81.72 L65.12,81.72 C64.28,78.96 63.56,76.14 62.66,73.56 L55.58,54.3 L44,54.3 L44,98.94 L53.6,98.94 Z M110.6,99.78 C119.24,99.78 127.28,93.18 127.28,81.9 C127.28,70.56 119.24,63.96 110.6,63.96 C101.9,63.96 93.86,70.56 93.86,81.9 C93.86,93.18 101.9,99.78 110.6,99.78 Z M110.6,91.14 C106.58,91.14 104.78,87.54 104.78,81.9 C104.78,76.2 106.58,72.6 110.6,72.6 C114.56,72.6 116.36,76.2 116.36,81.9 C116.36,87.54 114.56,91.14 110.6,91.14 Z M143.72,99.78 C146.06,99.78 147.86,99.36 149,98.88 L147.74,91.02 C147.14,91.14 146.9,91.14 146.54,91.14 C145.7,91.14 144.62,90.48 144.62,88.26 L144.62,51 L134,51 L134,87.84 C134,94.98 136.4,99.78 143.72,99.78 Z M168.62,99.78 C179.42,99.78 185.66,93.24 185.66,85.8 C185.66,79.5 182.36,75.78 176.84,73.56 L171.26,71.34 C167.3,69.78 164.48,68.82 164.48,66.36 C164.48,63.96 166.52,62.64 169.82,62.64 C173.3,62.64 176.06,63.84 179,66.06 L184.34,59.34 C180.44,55.44 174.98,53.46 169.82,53.46 C160.34,53.46 153.62,59.46 153.62,66.96 C153.62,73.44 158,77.34 162.68,79.2 L168.38,81.6 C172.22,83.22 174.68,84.06 174.68,86.64 C174.68,89.04 172.82,90.54 168.86,90.54 C165.32,90.54 161.18,88.68 158,85.98 L151.94,93.36 C156.56,97.62 162.8,99.78 168.62,99.78 Z M207.68,99.78 C211.7,99.78 216.38,98.4 219.92,95.88 L216.38,89.46 C213.92,90.9 211.64,91.62 209.18,91.62 C204.86,91.62 201.62,89.7 200.66,85.02 L220.7,85.02 C220.94,84.24 221.18,82.32 221.18,80.46 C221.18,71.1 216.38,63.96 206.54,63.96 C198.26,63.96 190.34,70.8 190.34,81.9 C190.34,93.18 197.9,99.78 207.68,99.78 Z M212.12,78.06 L200.48,78.06 C201.2,73.98 203.78,72.12 206.72,72.12 C210.62,72.12 212.12,74.64 212.12,78.06 Z M236.66,99.78 C240.44,99.78 243.62,98.04 246.44,95.52 L246.68,95.52 L247.46,98.94 L256.16,98.94 L256.16,79.56 C256.16,68.88 251.18,63.96 242.36,63.96 C237.02,63.96 232.16,65.76 227.66,68.46 L231.38,75.48 C234.8,73.56 237.62,72.48 240.32,72.48 C243.8,72.48 245.24,74.1 245.48,76.86 C232.16,78.3 226.52,82.2 226.52,89.4 C226.52,95.1 230.36,99.78 236.66,99.78 Z M240.32,91.5 C238.1,91.5 236.66,90.54 236.66,88.56 C236.66,86.16 238.82,84.24 245.48,83.34 L245.48,88.8 C243.92,90.48 242.48,91.5 240.32,91.5 Z M275,98.94 L275,79.44 C276.8,74.94 279.86,73.32 282.38,73.32 C283.88,73.32 284.9,73.56 286.1,73.86 L287.9,64.68 C286.94,64.26 285.8,63.96 283.76,63.96 C280.34,63.96 276.56,66.18 274.04,70.74 L273.8,70.74 L273.08,64.8 L264.38,64.8 L264.38,98.94 L275,98.94 Z M307.28,99.78 C310.88,99.78 315.2,98.7 318.5,95.76 L314.42,88.74 C312.68,90.12 310.64,91.14 308.48,91.14 C304.28,91.14 301.22,87.54 301.22,81.9 C301.22,76.2 304.16,72.6 308.84,72.6 C310.34,72.6 311.66,73.14 313.22,74.46 L318.2,67.62 C315.62,65.4 312.38,63.96 308.24,63.96 C298.7,63.96 290.3,70.56 290.3,81.9 C290.3,93.18 297.68,99.78 307.28,99.78 Z M335.06,98.94 L335.06,76.14 C337.16,74.16 338.6,73.08 341,73.08 C343.7,73.08 344.96,74.46 344.96,79.14 L344.96,98.94 L355.64,98.94 L355.64,77.82 C355.64,69.3 352.46,63.96 345.02,63.96 C340.4,63.96 337.04,66.3 334.58,68.58 L335.06,62.52 L335.06,51 L324.44,51 L324.44,98.94 L335.06,98.94 Z"></path>
        </g>
    </g>
</svg>