<svg width="18" height="18" viewBox="0 0 18 18" fill="none" xmlns="http://www.w3.org/2000/svg">
<path d="M6.59531 0C5.60156 0 4.79766 0.80625 4.79766 1.8C4.79766 2.27578 4.9875 2.73516 5.32266 3.07266C5.66016 3.41016 6.11719 3.6 6.59531 3.6H8.39297V1.8C8.39297 0.808594 7.58906 0.00234375 6.59531 0ZM6.59531 4.8H1.79766C0.803906 4.8 0 5.60625 0 6.6C0 7.59375 0.80625 8.4 1.79766 8.4H6.59297C7.58672 8.4 8.39063 7.59375 8.39063 6.6C8.39297 5.60625 7.58672 4.8 6.59531 4.8ZM11.3906 8.4C12.3844 8.4 13.1906 7.59375 13.1883 6.6V1.8C13.1883 0.80625 12.3844 0 11.3906 0C10.3969 0 9.59297 0.80625 9.59297 1.8V6.6C9.59297 7.59609 10.3969 8.4 11.3906 8.4ZM17.9859 6.6C17.9859 5.60625 17.1797 4.8 16.1883 4.8C15.1969 4.8 14.3906 5.60625 14.3906 6.6V8.4H16.1883C17.1797 8.4 17.9859 7.59375 17.9859 6.6ZM16.1859 9.6H11.3906C10.3969 9.6 9.59297 10.4063 9.59297 11.4C9.59297 11.8758 9.78281 12.3352 10.118 12.6727C10.4555 13.0102 10.9125 13.2 11.3906 13.2H16.1859C17.1797 13.2 17.9836 12.3938 17.9836 11.4C17.9859 10.4063 17.1797 9.60234 16.1859 9.6ZM11.3906 14.4H9.59297V16.2C9.59297 17.1938 10.3992 18 11.3906 18C12.3844 18 13.1906 17.1938 13.1883 16.2C13.1906 15.2063 12.3844 14.4023 11.3906 14.4ZM6.59531 9.6C5.60156 9.6 4.79766 10.4063 4.79766 11.4V16.2C4.79766 17.1938 5.60391 18 6.59531 18C7.58906 18 8.39531 17.1938 8.39297 16.2V11.4C8.39297 10.9242 8.20313 10.4648 7.86797 10.1273C7.53047 9.78984 7.07109 9.6 6.59531 9.6ZM0 11.4C0 11.8758 0.189844 12.3352 0.525 12.6727C0.8625 13.0102 1.31953 13.2 1.79766 13.2C2.79141 13.2 3.59766 12.3938 3.59531 11.4V9.6H1.79766C0.80625 9.6 0 10.4063 0 11.4Z" fill="#06AFF2"/>
</svg>
